<?xml version="1.0" encoding="utf-8"?>
<svg viewBox="705 772.5 218 138" xmlns="http://www.w3.org/2000/svg">
  <path d="M7228 1706 l-178 -182 0 -149 0 -150 182 183 183 182 180 -180 181 -180 182 182 182 183 182 -183 182 -182 181 180 180 180 183 -182 182 -183 0 150 0 150 -183 183 -182 182 -180 -180 -180 -180 -182 182 -183 183 -183 -183 -182 -182 -180 180 c-99 99 -182 179 -185 179 -3 -1 -85 -84 -182 -183z" transform="matrix(0.1, 0, 0, -0.1, 0, 962)"/>
  <path d="M7232 997 l-182 -182 0 -150 0 -150 180 180 180 180 178 -178 c97 -97 182 -177 187 -177 5 0 90 80 187 177 l178 178 178 -178 c97 -97 181 -177 185 -177 4 0 85 79 179 175 94 96 175 175 182 175 6 0 91 -80 188 -177 l178 -178 0 150 0 150 -182 182 -183 183 -182 -182 -183 -183 -180 180 -180 180 -180 -180 -180 -180 -183 183 -182 182 -183 -183z" transform="matrix(0.1, 0, 0, -0.1, 0, 962)"/>
</svg>