<?xml version="1.0" encoding="utf-8"?>
<svg viewBox="6.594 0.245 222.87 218.255" xmlns="http://www.w3.org/2000/svg">
  <path d="M261 9598 c-84 -29 -151 -93 -176 -168 -28 -85 -25 -238 8 -367 47 -182 106 -296 191 -369 40 -35 287 -164 313 -164 10 0 13 30 13 130 l0 129 -72 38 c-49 26 -83 52 -105 81 -39 52 -102 240 -110 329 -5 56 -4 63 20 87 52 52 154 31 344 -70 70 -37 179 -94 240 -126 l113 -59 2 -817 3 -817 135 0 135 0 5 818 5 818 45 23 c25 12 131 68 237 125 194 104 264 131 341 131 58 0 92 -33 92 -89 0 -46 -61 -264 -89 -318 -26 -51 -65 -86 -134 -120 l-58 -29 -2 -132 c-1 -87 2 -132 9 -132 28 0 280 136 319 171 83 76 135 180 182 362 33 130 37 283 9 366 -24 71 -93 141 -161 165 -116 40 -285 27 -465 -36 -111 -39 -145 -57 -268 -139 l-103 -69 -99 0 -99 0 -98 67 c-183 124 -367 190 -558 199 -85 4 -109 1 -164 -18z" transform="matrix(0.1, 0, 0, -0.1, 0, 962)"/>
</svg>