<?xml version="1.0" encoding="utf-8"?>
<svg viewBox="1060 13.291 218 192.11" xmlns="http://www.w3.org/2000/svg">
  <path d="M11460 9484 c-127 -11 -244 -27 -328 -44 -322 -67 -510 -251 -529 -515 -9 -128 31 -248 119 -360 179 -226 461 -281 689 -134 130 85 229 218 265 360 30 116 3 252 -70 361 l-35 53 57 7 c78 11 325 0 452 -18 244 -37 435 -120 623 -271 l77 -63 0 134 0 134 -51 46 c-164 147 -396 248 -672 291 -98 16 -491 28 -597 19z m-224 -343 c143 -65 216 -230 155 -350 -99 -193 -304 -226 -443 -72 -105 117 -100 247 14 358 82 79 186 104 274 64z" transform="matrix(0.1, 0, 0, -0.1, 0, 962)"/>
  <path d="M12133 8696 c-100 -25 -182 -74 -268 -160 -185 -186 -223 -388 -114 -596 16 -30 37 -66 46 -79 l17 -24 -239 6 c-191 4 -260 9 -336 26 -234 51 -422 140 -586 278 l-53 45 0 -135 0 -135 48 -43 c262 -233 674 -338 1219 -308 494 26 786 157 875 391 29 78 41 188 29 271 -45 299 -363 529 -638 463z m202 -286 c51 -22 118 -89 145 -145 70 -144 -35 -332 -205 -368 -82 -17 -152 8 -225 82 -91 91 -112 190 -61 290 73 142 212 199 346 141z" transform="matrix(0.1, 0, 0, -0.1, 0, 962)"/>
</svg>