<?xml version="1.0" encoding="utf-8"?>
<svg viewBox="366 721.593 239.271 240.707" xmlns="http://www.w3.org/2000/svg">
  <path d="M5460 2399 c-168 -24 -309 -132 -388 -296 -52 -111 -55 -251 -7 -375 5 -14 0 -17 -31 -20 l-38 -3 -260 -617 c-146 -346 -263 -612 -267 -605 -4 6 -61 167 -127 357 -66 190 -182 520 -256 734 -75 214 -136 391 -136 393 0 1 -65 3 -145 3 -80 0 -145 -3 -145 -7 1 -5 153 -433 339 -953 l337 -945 138 0 137 0 294 685 293 685 71 3 70 3 114 -113 c124 -123 178 -196 237 -321 57 -118 73 -191 68 -307 -3 -84 -8 -105 -36 -162 -78 -158 -256 -255 -504 -274 l-88 -7 0 -130 0 -130 108 7 c278 19 475 97 627 250 89 90 142 181 171 296 24 93 22 253 -5 355 -41 156 -168 381 -280 494 l-67 68 50 23 c31 14 79 52 122 94 102 103 144 199 144 336 0 83 -13 136 -51 214 -93 190 -286 295 -489 265z m140 -296 c140 -74 162 -239 44 -342 -46 -41 -73 -51 -135 -51 -141 0 -245 144 -194 267 25 59 63 101 113 128 62 32 108 31 172 -2z" transform="matrix(0.1, 0, 0, -0.1, 0, 962)"/>
</svg>