<?xml version="1.0" encoding="utf-8"?>
<svg viewBox="1058 352.11 221.859 262.39" xmlns="http://www.w3.org/2000/svg">
  <path d="M10897 6081 c-110 -36 -207 -132 -262 -256 -55 -124 -55 -110 -55 -1042 l0 -863 135 0 134 0 3 883 3 882 25 49 c31 61 64 87 121 93 35 4 51 0 78 -19 49 -33 70 -74 81 -159 5 -42 10 -433 10 -901 l0 -828 135 0 134 0 3 888 c3 885 3 887 25 934 26 56 59 80 121 85 62 6 108 -24 142 -92 l25 -50 5 -905 c5 -898 6 -906 27 -970 48 -140 138 -252 250 -307 52 -25 68 -28 158 -28 123 1 173 21 256 105 87 86 148 226 164 373 4 37 9 67 11 67 1 0 40 -22 86 -50 l83 -50 3 117 c2 85 -1 120 -10 129 -7 6 -79 59 -159 117 l-146 105 -159 -97 -159 -97 -3 -137 c-2 -75 0 -137 3 -137 4 0 45 23 92 51 46 28 87 49 90 45 9 -9 -18 -169 -35 -205 -23 -49 -66 -73 -125 -68 -61 5 -95 30 -127 93 l-25 49 -5 900 -5 900 -24 70 c-35 105 -84 186 -151 249 -49 45 -74 60 -132 77 -131 40 -268 11 -369 -79 l-46 -41 -39 40 c-86 88 -241 122 -367 80z" transform="matrix(0.1, 0, 0, -0.1, 0, 962)"/>
</svg>