<?xml version="1.0" encoding="utf-8"?>
<svg viewBox="9.614 352.187 215.655 262.631" xmlns="http://www.w3.org/2000/svg">
  <path d="M1061 6089 c-262 -34 -432 -177 -523 -439 -28 -83 -32 -108 -32 -195 0 -117 12 -154 130 -409 41 -88 74 -161 74 -162 0 -1 -35 0 -77 3 -147 10 -285 -41 -392 -146 -240 -238 -173 -623 136 -773 139 -67 278 -64 422 8 130 65 237 210 260 354 33 201 -1 354 -159 725 -139 326 -154 386 -126 508 39 166 127 248 300 278 53 9 104 9 220 0 309 -24 389 -46 479 -131 85 -82 102 -133 101 -320 0 -132 -2 -152 -27 -223 -36 -103 -82 -193 -247 -482 -160 -281 -190 -345 -225 -481 -68 -270 -54 -470 44 -592 66 -83 243 -150 366 -139 128 12 264 84 405 215 86 80 88 66 -22 185 l-63 67 -86 -84 c-116 -112 -166 -141 -244 -141 -71 1 -147 31 -166 67 -34 62 -29 188 16 362 30 119 81 222 227 456 131 210 156 257 205 384 92 238 100 567 19 750 -35 77 -108 168 -173 213 -131 91 -276 128 -548 143 -192 11 -205 11 -294 -1z m-372 -1438 c96 -49 161 -150 161 -248 -1 -101 -65 -200 -164 -250 -122 -62 -278 -6 -349 125 -60 111 -43 218 51 312 35 35 75 63 102 73 58 21 143 16 199 -12z" transform="matrix(0.1, 0, 0, -0.1, 0, 962)"/>
</svg>