<?xml version="1.0" encoding="utf-8"?>
<svg viewBox="705 416.118 218 134.882" xmlns="http://www.w3.org/2000/svg">
  <path d="M8032 5446 c-206 -50 -412 -273 -429 -464 l-6 -62 -273 0 -274 0 0 -140 0 -140 410 0 410 0 0 165 c0 156 1 169 24 214 46 90 163 171 246 171 85 0 204 -84 246 -175 22 -46 24 -63 24 -212 l0 -163 410 0 410 0 0 140 0 140 -275 0 -275 0 0 33 c0 153 -154 368 -320 449 -119 57 -217 70 -328 44z" transform="matrix(0.1, 0, 0, -0.1, 0, 962)"/>
  <path d="M7050 4240 l0 -130 1090 0 1090 0 0 130 0 130 -1090 0 -1090 0 0 -130z" transform="matrix(0.1, 0, 0, -0.1, 0, 962)"/>
</svg>