<?xml version="1.0" encoding="utf-8"?>
<svg viewBox="1067.5 733 202.5 218" xmlns="http://www.w3.org/2000/svg">
  <path d="M10730 2243 c286 -246 416 -446 464 -714 8 -46 16 -104 18 -129 l3 -45 -228 -3 -227 -2 0 -140 0 -140 223 0 c123 0 226 -2 228 -5 3 -2 1 -44 -3 -92 -18 -191 -90 -377 -202 -526 -55 -74 -299 -317 -317 -317 -5 0 -9 -4 -9 -10 0 -6 58 -10 154 -10 l153 0 84 74 c257 226 375 445 409 758 5 54 10 104 10 113 0 13 27 15 200 15 l200 0 0 -52 c0 -82 27 -240 55 -323 59 -177 128 -280 301 -452 l133 -133 160 0 160 0 -167 167 c-130 131 -178 186 -216 251 -82 139 -133 299 -151 475 l-7 67 226 0 226 0 0 140 0 140 -225 0 -225 0 0 23 c1 96 41 265 90 378 68 159 167 285 362 460 l88 79 -163 0 -163 0 -120 -114 c-132 -125 -204 -221 -265 -351 -57 -122 -99 -303 -99 -431 l0 -44 -200 0 c-184 0 -200 1 -200 18 0 52 -23 208 -41 280 -54 217 -162 386 -359 559 l-94 83 -160 0 -161 0 55 -47z" transform="matrix(0.1, 0, 0, -0.1, 0, 962)"/>
</svg>