<?xml version="1.0" encoding="utf-8"?>
<svg viewBox="404 0 163 217.62" xmlns="http://www.w3.org/2000/svg">
  <path d="M4040 9588 c0 -56 27 -162 61 -243 56 -136 146 -250 298 -382 l33 -29 -66 -54 c-194 -157 -325 -408 -326 -623 -1 -330 284 -686 635 -793 93 -29 288 -26 379 4 294 98 535 355 602 639 23 96 15 265 -16 353 -63 180 -177 336 -329 451 l-34 25 62 48 c183 141 331 405 331 591 l0 45 -134 0 -133 0 -7 -55 c-20 -174 -167 -371 -333 -447 -188 -85 -391 -49 -550 96 -106 97 -171 213 -195 349 l-10 57 -134 0 -134 0 0 -32z m911 -798 c234 -43 449 -302 449 -540 -1 -265 -278 -541 -545 -540 -244 1 -507 242 -540 497 -10 71 11 167 57 263 76 158 243 294 389 319 76 12 128 13 190 1z" transform="matrix(0.1, 0, 0, -0.1, 0, 962)"/>
</svg>