<?xml version="1.0" encoding="utf-8"?>
<svg viewBox="384 352.095 203.4 263.005" xmlns="http://www.w3.org/2000/svg">
  <path d="M4159 6082 c-145 -48 -253 -178 -300 -360 -18 -71 -19 -118 -19 -939 l0 -863 135 0 134 0 3 883 3 882 25 49 c31 61 64 87 121 93 52 6 101 -22 132 -74 32 -55 36 -186 37 -1025 l0 -808 135 0 134 0 3 893 c3 869 4 893 23 931 27 53 63 78 122 83 39 4 55 0 82 -19 63 -42 72 -70 87 -266 49 -638 115 -1007 243 -1355 l48 -132 -35 -70 c-50 -102 -126 -208 -195 -271 l-60 -56 94 -94 c51 -52 97 -93 100 -92 16 7 126 142 176 218 68 101 65 98 70 83 11 -31 127 -195 174 -246 l54 -58 94 95 95 95 -66 64 c-70 69 -146 175 -196 274 l-31 61 34 88 c141 360 256 985 258 1404 0 113 -4 146 -22 205 -49 151 -135 260 -249 313 -50 24 -69 27 -152 26 -80 0 -104 -4 -152 -26 -31 -15 -76 -45 -101 -67 l-44 -40 -37 38 c-21 21 -63 51 -94 67 -52 26 -67 29 -157 28 -86 0 -108 -4 -155 -26 -30 -14 -76 -44 -101 -66 l-46 -41 -37 38 c-87 89 -243 124 -367 83z m1360 -270 c90 -45 104 -186 60 -607 -24 -233 -59 -448 -106 -650 -29 -123 -29 -123 -62 26 -54 252 -93 543 -112 835 -18 274 1 363 85 400 43 18 95 17 135 -4z" transform="matrix(0.1, 0, 0, -0.1, 0, 962)"/>
</svg>